<?xml version="1.0" standalone="no"?>
<svg xmlns="http://www.w3.org/2000/svg" viewBox="0 0 146.904 22.584" width="146.904" height="22.584"><path fill="#bba364" fill-rule="nonzero" d="M3.60 9.26Q3.60 10.15 3.34 10.58Q3.07 11.02 2.47 11.23L2.47 11.23Q3.07 11.45 3.34 11.88Q3.60 12.31 3.60 13.20L3.60 13.20L3.60 19.13Q3.60 21.05 5.42 21.05L5.42 21.05L6.07 21.05L6.07 22.46L5.18 22.46Q1.90 22.46 1.90 19.27L1.90 19.27L1.90 13.18Q1.90 11.95 0.82 11.95L0.82 11.95L0 11.95L0 10.51L0.82 10.51Q1.90 10.51 1.90 9.29L1.90 9.29L1.90 3.19Q1.90 0 5.18 0L5.18 0L6.07 0L6.07 1.42L5.42 1.42Q3.60 1.42 3.60 3.34L3.60 3.34L3.60 9.26ZM21.74 5.09Q23.52 5.09 24.96 5.89Q26.40 6.70 27.22 8.16Q28.03 9.62 28.03 11.50L28.03 11.50Q28.03 13.37 27.22 14.83Q26.40 16.30 24.96 17.11Q23.52 17.93 21.74 17.93L21.74 17.93Q20.16 17.93 18.90 17.26Q17.64 16.58 16.87 15.31L16.87 15.31L16.87 17.81L15.24 17.81L15.24 0L16.94 0L16.94 7.58Q17.74 6.36 18.97 5.72Q20.21 5.09 21.74 5.09L21.74 5.09ZM21.62 16.42Q22.94 16.42 24.02 15.80Q25.10 15.19 25.72 14.06Q26.33 12.94 26.33 11.50L26.33 11.50Q26.33 10.06 25.72 8.93Q25.10 7.80 24.02 7.19Q22.94 6.58 21.62 6.58L21.62 6.58Q20.28 6.58 19.21 7.19Q18.14 7.80 17.53 8.93Q16.92 10.06 16.92 11.50L16.92 11.50Q16.92 12.94 17.53 14.06Q18.14 15.19 19.21 15.80Q20.28 16.42 21.62 16.42L21.62 16.42ZM36.67 17.93Q34.85 17.93 33.38 17.10Q31.92 16.27 31.08 14.81Q30.24 13.34 30.24 11.50L30.24 11.50Q30.24 9.65 31.08 8.18Q31.92 6.72 33.38 5.90Q34.85 5.09 36.67 5.09L36.67 5.09Q38.50 5.09 39.96 5.90Q41.42 6.72 42.25 8.18Q43.08 9.65 43.08 11.50L43.08 11.50Q43.08 13.34 42.25 14.81Q41.42 16.27 39.96 17.10Q38.50 17.93 36.67 17.93L36.67 17.93ZM36.67 16.42Q38.02 16.42 39.08 15.80Q40.15 15.19 40.75 14.06Q41.35 12.94 41.35 11.50L41.35 11.50Q41.35 10.06 40.75 8.93Q40.15 7.80 39.08 7.19Q38.02 6.58 36.67 6.58L36.67 6.58Q35.33 6.58 34.26 7.19Q33.19 7.80 32.58 8.93Q31.97 10.06 31.97 11.50L31.97 11.50Q31.97 12.94 32.58 14.06Q33.19 15.19 34.26 15.80Q35.33 16.42 36.67 16.42L36.67 16.42ZM51.72 17.93Q49.90 17.93 48.43 17.10Q46.97 16.27 46.13 14.81Q45.29 13.34 45.29 11.50L45.29 11.50Q45.29 9.65 46.13 8.18Q46.97 6.72 48.43 5.90Q49.90 5.09 51.72 5.09L51.72 5.09Q53.54 5.09 55.01 5.90Q56.47 6.72 57.30 8.18Q58.13 9.65 58.13 11.50L58.13 11.50Q58.13 13.34 57.30 14.81Q56.47 16.27 55.01 17.10Q53.54 17.93 51.72 17.93L51.72 17.93ZM51.72 16.42Q53.06 16.42 54.13 15.80Q55.20 15.19 55.80 14.06Q56.40 12.94 56.40 11.50L56.40 11.50Q56.40 10.06 55.80 8.93Q55.20 7.80 54.13 7.19Q53.06 6.58 51.72 6.58L51.72 6.58Q50.38 6.58 49.31 7.19Q48.24 7.80 47.63 8.93Q47.02 10.06 47.02 11.50L47.02 11.50Q47.02 12.94 47.63 14.06Q48.24 15.19 49.31 15.80Q50.38 16.42 51.72 16.42L51.72 16.42ZM71.38 17.81L66.29 11.47L63.31 14.21L63.31 17.81L61.61 17.81L61.61 0L63.31 0L63.31 12.07L70.85 5.18L72.96 5.18L67.56 10.34L73.46 17.81L71.38 17.81ZM75.43 7.34L75.31 1.01L76.82 1.01L76.70 7.34L75.43 7.34ZM88.63 0.86Q91.66 0.86 93.37 2.66Q95.09 4.46 95.09 7.80L95.09 7.80L95.09 17.81L93.31 17.81L93.31 7.85Q93.31 5.18 91.99 3.82Q90.67 2.45 88.30 2.45L88.30 2.45Q85.80 2.45 84.41 3.90Q83.02 5.35 83.02 8.26L83.02 8.26L83.02 17.81L81.24 17.81L81.24 1.01L82.94 1.01L82.94 3.84Q84.55 0.86 88.63 0.86L88.63 0.86ZM99.46 7.34L99.34 1.01L100.85 1.01L100.73 7.34L99.46 7.34ZM114.96 5.18L116.59 5.18L116.59 16.27Q116.59 19.49 115.02 21.04Q113.45 22.58 110.28 22.58L110.28 22.58Q108.53 22.58 106.96 22.07Q105.38 21.55 104.40 20.64L104.40 20.64L105.26 19.34Q106.18 20.16 107.48 20.62Q108.79 21.07 110.23 21.07L110.23 21.07Q112.63 21.07 113.76 19.96Q114.89 18.84 114.89 16.49L114.89 16.49L114.89 14.88Q114.10 16.08 112.81 16.70Q111.53 17.33 109.97 17.33L109.97 17.33Q108.19 17.33 106.74 16.55Q105.29 15.77 104.46 14.36Q103.63 12.96 103.63 11.18L103.63 11.18Q103.63 9.41 104.46 8.02Q105.29 6.62 106.73 5.86Q108.17 5.09 109.97 5.09L109.97 5.09Q111.58 5.09 112.87 5.74Q114.17 6.38 114.96 7.61L114.96 7.61L114.96 5.18ZM110.14 15.82Q111.50 15.82 112.61 15.23Q113.71 14.64 114.32 13.58Q114.94 12.53 114.94 11.18L114.94 11.18Q114.94 9.84 114.32 8.80Q113.71 7.75 112.62 7.16Q111.53 6.58 110.14 6.58L110.14 6.58Q108.77 6.58 107.68 7.15Q106.58 7.73 105.97 8.78Q105.36 9.84 105.36 11.18L105.36 11.18Q105.36 12.53 105.97 13.58Q106.58 14.64 107.68 15.23Q108.77 15.82 110.14 15.82L110.14 15.82ZM126.53 17.93Q124.70 17.93 123.24 17.10Q121.78 16.27 120.94 14.81Q120.10 13.34 120.10 11.50L120.10 11.50Q120.10 9.65 120.94 8.18Q121.78 6.72 123.24 5.90Q124.70 5.09 126.53 5.09L126.53 5.09Q128.35 5.09 129.82 5.90Q131.28 6.72 132.11 8.18Q132.94 9.65 132.94 11.50L132.94 11.50Q132.94 13.34 132.11 14.81Q131.28 16.27 129.82 17.10Q128.35 17.93 126.53 17.93L126.53 17.93ZM126.53 16.42Q127.87 16.42 128.94 15.80Q130.01 15.19 130.61 14.06Q131.21 12.94 131.21 11.50L131.21 11.50Q131.21 10.06 130.61 8.93Q130.01 7.80 128.94 7.19Q127.87 6.58 126.53 6.58L126.53 6.58Q125.18 6.58 124.12 7.19Q123.05 7.80 122.44 8.93Q121.82 10.06 121.82 11.50L121.82 11.50Q121.82 12.94 122.44 14.06Q123.05 15.19 124.12 15.80Q125.18 16.42 126.53 16.42L126.53 16.42ZM146.09 10.51L146.90 10.51L146.90 11.95L146.09 11.95Q145.01 11.95 145.01 13.18L145.01 13.18L145.01 19.27Q145.01 22.46 141.74 22.46L141.74 22.46L140.83 22.46L140.83 21.05L141.48 21.05Q143.30 21.05 143.30 19.13L143.30 19.13L143.30 13.20Q143.30 12.31 143.57 11.88Q143.83 11.45 144.43 11.23L144.43 11.23Q143.83 11.02 143.57 10.58Q143.30 10.15 143.30 9.26L143.30 9.26L143.30 3.34Q143.30 1.42 141.48 1.42L141.48 1.42L140.83 1.42L140.83 0L141.74 0Q145.01 0 145.01 3.19L145.01 3.19L145.01 9.29Q145.01 10.51 146.09 10.51L146.09 10.51Z"></path></svg>